# xmcd CD database file
#
# Track frame offsets:
#	150
#	16182
#	36240
#	51407
#	68695
#	85232
#	109147
#	133040
#	155747
#	178115
#	197325
#	217732
#
# Disc length: 3235 seconds
#
# Revision: 4
# Processed by: cddbd v1.5PL3 Copyright (c) Steve Scherf et al.
# Submitted via: CDex 1.51
#
DISCID=a00ca10c
DTITLE=TESLA - Mechanical Resonance
DYEAR=1986
DGENRE=Hard Rock
TTITLE0=Ez Come Ez Go
TTITLE1=Cumin' Atcha Live
TTITLE2=Gettin' Better
TTITLE3=2 Late 4 Love
TTITLE4=Rock Me To The Top
TTITLE5=We're No Good Together
TTITLE6=Modern Day Cowboy
TTITLE7=Changes
TTITLE8=Little Suzi
TTITLE9=Love Me
TTITLE10=Cover Queen
TTITLE11=Before My Eyes
EXTD=YEAR: 1986
EXTT0=
EXTT1=
EXTT2=
EXTT3=
EXTT4=
EXTT5=
EXTT6=
EXTT7=
EXTT8=
EXTT9=
EXTT10=
EXTT11=
PLAYORDER=
